<?xml version="1.0" encoding="UTF-8" standalone="no"?>
<!-- Created with Inkscape (http://www.inkscape.org/) -->

<svg
   width="210mm"
   height="297mm"
   viewBox="0 0 210 297"
   version="1.1"
   id="svg5"
   inkscape:version="1.2.2 (732a01da63, 2022-12-09, custom)"
   sodipodi:docname="summercamp_gray_text.svg"
   xmlns:inkscape="http://www.inkscape.org/namespaces/inkscape"
   xmlns:sodipodi="http://sodipodi.sourceforge.net/DTD/sodipodi-0.dtd"
   xmlns="http://www.w3.org/2000/svg"
   xmlns:svg="http://www.w3.org/2000/svg">
  <sodipodi:namedview
     id="namedview7"
     pagecolor="#ffffff"
     bordercolor="#666666"
     borderopacity="1.0"
     inkscape:showpageshadow="2"
     inkscape:pageopacity="0.0"
     inkscape:pagecheckerboard="0"
     inkscape:deskcolor="#d1d1d1"
     inkscape:document-units="mm"
     showgrid="false"
     inkscape:zoom="0.75722503"
     inkscape:cx="9.2442797"
     inkscape:cy="353.26355"
     inkscape:window-width="1452"
     inkscape:window-height="752"
     inkscape:window-x="26"
     inkscape:window-y="23"
     inkscape:window-maximized="0"
     inkscape:current-layer="layer1" />
  <defs
     id="defs2">
    <rect
       x="204.31931"
       y="241.23715"
       width="556.6335"
       height="119.54173"
       id="rect169" />
  </defs>
  <g
     inkscape:label="Layer 1"
     inkscape:groupmode="layer"
     id="layer1">
    <rect
       style="fill:none;stroke-width:0.264583"
       id="rect608"
       width="197.16835"
       height="44.904678"
       x="6.5336852"
       y="54.96513"
       inkscape:export-filename="../b320d2c8/logo_basic.png"
       inkscape:export-xdpi="230.5948"
       inkscape:export-ydpi="230.5948" />
    <text
       xml:space="preserve"
       transform="matrix(0.26458333,0,0,0.26458333,0,-1.1182245)"
       id="text167"
       style="font-style:normal;font-weight:normal;font-size:48px;line-height:1.25;font-family:sans-serif;white-space:pre;shape-inside:url(#rect169);display:inline;fill:#414141;fill-opacity:1;stroke:none"><tspan
         x="204.31836"
         y="283.70508"
         id="tspan419"><tspan
           style="font-weight:bold;font-family:'DejaVu Sans';-inkscape-font-specification:'DejaVu Sans Bold'"
           id="tspan417">SUMMERCAMP 2023
</tspan></tspan><tspan
         x="204.31836"
         y="343.70508"
         id="tspan423"><tspan
           style="font-weight:bold;font-family:'DejaVu Sans';-inkscape-font-specification:'DejaVu Sans Bold'"
           id="tspan421">SRE FRANCE</tspan></tspan></text>
    <g
       id="g411"
       transform="matrix(0.07863267,0,0,0.07863267,10.76404,57.129776)"
       style="fill:#3b3b3b;fill-opacity:1"
       inkscape:export-filename="../9e63161c/logo_gray_text.png"
       inkscape:export-xdpi="230.5948"
       inkscape:export-ydpi="230.5948">
      <g
         id="g409"
         style="fill:#3b3b3b;fill-opacity:1">
        <g
           id="g407"
           style="fill:#3b3b3b;fill-opacity:1">
          <path
             d="m 4.475,425.637 c 1.289,0.7 2.679,1.033 4.053,1.033 3.029,0 5.965,-1.613 7.509,-4.471 L 127.192,216.964 c 0.239,-0.495 5.973,-12.16 17.877,-12.16 1.69,0 3.593,0.853 5.47,2.005 L 77.879,337.18 c -2.295,4.122 -0.811,9.318 3.302,11.614 1.314,0.725 2.739,1.075 4.147,1.075 2.995,0 5.897,-1.579 7.467,-4.378 l 71.552,-128.401 26.803,20.139 c 3.396,2.56 8.149,2.21 11.153,-0.794 l 45.167,-45.167 28.1,28.1 c 3.337,3.337 8.73,3.337 12.066,0 l 25.6,-25.6 c 3.337,-3.337 3.337,-8.73 0,-12.066 -3.337,-3.336 -8.73,-3.337 -12.066,0 l -19.567,19.567 -28.1,-28.1 c -3.337,-3.337 -8.73,-3.337 -12.066,0 l -45.969,45.969 -28.058,-21.043 -0.99,-0.785 c -4.489,-3.584 -12.006,-9.574 -21.35,-9.574 -22.929,0 -32.93,21.129 -33.101,21.538 L 1.036,414.074 c -2.253,4.139 -0.708,9.318 3.439,11.563 z"
             id="path397"
             style="fill:#3b3b3b;fill-opacity:1" />
          <path
             d="M 110.937,443.736 H 8.537 c -4.71,0 -8.533,3.823 -8.533,8.533 0,4.71 3.823,8.533 8.533,8.533 h 102.4 c 4.71,0 8.533,-3.823 8.533,-8.533 0,-4.71 -3.823,-8.533 -8.533,-8.533 z"
             id="path399"
             style="fill:#3b3b3b;fill-opacity:1" />
          <path
             d="m 173.281,182.582 c 4.147,2.244 9.318,0.691 11.563,-3.456 l 53.282,-98.697 c 0.239,-0.495 5.973,-12.16 17.877,-12.16 11.904,0 17.638,11.665 18.108,12.621 L 418.41,345.449 c 1.553,2.842 4.48,4.446 7.501,4.446 1.382,0 2.782,-0.333 4.079,-1.041 4.139,-2.261 5.666,-7.441 3.405,-11.58 L 394.44,265.867 c 2.099,-0.87 4.318,-1.331 6.63,-1.331 11.904,0 17.638,11.665 18.057,12.518 l 76.8,145.075 c 1.536,2.893 4.489,4.54 7.552,4.54 1.348,0 2.714,-0.316 3.985,-0.99 4.164,-2.21 5.751,-7.373 3.55,-11.537 L 434.419,269.493 c -0.418,-0.896 -10.419,-22.025 -33.348,-22.025 -5.197,0 -10.146,1.271 -14.771,3.473 L 289.352,73.227 c -0.418,-0.896 -10.419,-22.025 -33.348,-22.025 -22.938,0 -32.93,21.129 -33.109,21.547 l -53.069,98.27 c -2.236,4.139 -0.692,9.318 3.455,11.563 z"
             id="path401"
             style="fill:#3b3b3b;fill-opacity:1" />
          <path
             d="m 452.27,443.736 h -93.867 v -17.067 h 17.067 0.171 c 4.71,0 8.533,-3.823 8.533,-8.533 0,-1.647 -0.469,-3.183 -1.271,-4.48 l -25.037,-66.782 c -1.254,-3.328 -4.437,-5.538 -7.996,-5.538 -3.559,0 -6.741,2.21 -7.996,5.538 l -25.6,68.267 c -0.973,2.62 -0.614,5.555 0.981,7.859 1.596,2.295 4.215,3.669 7.014,3.669 h 17.067 v 17.067 h -34.133 v -25.6 c 0,-4.71 -3.823,-8.533 -8.533,-8.533 h -13.286 l 13.431,-35.823 1.86,4.779 c 1.715,4.395 6.656,6.562 11.042,4.864 4.395,-1.707 6.571,-6.656 4.864,-11.042 l -9.958,-25.6 c -1.28,-3.285 -4.437,-5.444 -7.953,-5.444 h -0.051 c -3.541,0.017 -6.699,2.227 -7.945,5.538 l -25.6,68.267 c -0.973,2.62 -0.614,5.555 0.981,7.859 1.596,2.295 4.215,3.669 7.014,3.669 h 17.067 v 17.067 H 153.603 V 426.67 h 17.067 0.171 c 4.71,0 8.533,-3.823 8.533,-8.533 0,-1.647 -0.469,-3.183 -1.271,-4.48 l -25.037,-66.782 c -1.254,-3.328 -4.437,-5.538 -7.996,-5.538 -3.558,0 -6.741,2.21 -7.996,5.538 l -25.591,68.267 c -0.981,2.62 -0.623,5.555 0.973,7.859 1.596,2.295 4.215,3.669 7.014,3.669 h 17.067 v 25.6 c 0,4.71 3.823,8.533 8.533,8.533 h 307.2 c 4.71,0 8.533,-3.823 8.533,-8.533 0,-4.71 -3.822,-8.534 -8.533,-8.534 z m -320.486,-34.133 13.286,-35.43 13.286,35.43 z m 204.8,0 13.286,-35.43 13.286,35.43 z"
             id="path403"
             style="fill:#3b3b3b;fill-opacity:1" />
          <path
             d="m 503.47,443.736 h -17.067 c -4.71,0 -8.533,3.823 -8.533,8.533 0,4.71 3.823,8.533 8.533,8.533 h 17.067 c 4.71,0 8.533,-3.823 8.533,-8.533 0,-4.71 -3.822,-8.533 -8.533,-8.533 z"
             id="path405"
             style="fill:#3b3b3b;fill-opacity:1" />
        </g>
      </g>
    </g>
  </g>
</svg>
